<!DOCTYPE svg PUBLIC "-//W3C//DTD SVG 1.1//EN" "http://www.w3.org/Graphics/SVG/1.1/DTD/svg11.dtd">
<!-- Uploaded to: SVG Repo, www.svgrepo.com, Transformed by: SVG Repo Mixer Tools -->
<svg fill="#E66767" width="800px" height="800px" viewBox="-2.4 -2.4 20.80 20.80" id="chevrons-left-16px" xmlns="http://www.w3.org/2000/svg" stroke="#E66767" stroke-width="0.624">
<g id="SVGRepo_bgCarrier" stroke-width="0"/>
<g id="SVGRepo_tracerCarrier" stroke-linecap="round" stroke-linejoin="round"/>
<g id="SVGRepo_iconCarrier"> <path id="Path_141" data-name="Path 141" d="M41,0a.5.5,0,0,1,.354.854L34.207,8l7.147,7.146a.5.5,0,0,1-.708.708l-7.5-7.5a.5.5,0,0,1,0-.708l7.5-7.5A.5.5,0,0,1,41,0ZM33.646.146l-7.5,7.5a.5.5,0,0,0,0,.708l7.5,7.5a.5.5,0,0,0,.708-.708L27.207,8,34.354.854a.5.5,0,0,0-.708-.708Z" transform="translate(-26)"/> </g>
</svg>